# xmcd
#
# Track frame offsets: 
#        150
#        22472
#        45497
#        65920
#        86215
#        112095
#        134855
#        157175
#        179617
#        205387
#        225187
#        247317
#
# Disc length: 3660 seconds
#
# Revision: 2
# Processed by: cddbd v1.5.2PL0 Copyright (c) Steve Scherf et al.
# Submitted via: ExactAudioCopy v1.0b3
#
DISCID=c30e4a0c
DTITLE=Phuong Mai, Duy Quang, Elvis Phuong - Dinh Menh
DYEAR=1989
DGENRE=
TTITLE0=Phuong Mai, Sek - Mau nhuom bai Thuong Hai
TTITLE1=Phuong Mai, Duy Quang - Dinh menh
TTITLE2=Elvis Phuong - Duong ve khuya
TTITLE3=Phuong Mai - Biet den bao gio
TTITLE4=Phuong Mai, Elvis Phuong - Tinh yeu thuy thu
TTITLE5=Phuong Mai - Sau le bong
TTITLE6=Duy Quang - Vua bip
TTITLE7=Phuong Mai - Chieu cuoi tuan
TTITLE8=Duy Quang - Chi co em
TTITLE9=Phuong Mai - Bong co may
TTITLE10=Elvis Phuong - Phien khuc chieu mua
TTITLE11=Phuong Mai, Duy Quang - Neu ai co hoi
EXTD=
EXTT0=
EXTT1=
EXTT2=
EXTT3=
EXTT4=
EXTT5=
EXTT6=
EXTT7=
EXTT8=
EXTT9=
EXTT10=
EXTT11=
PLAYORDER=
